<?xml version="1.0" encoding="UTF-8"?>
<svg id="svg19" width="193.425" height="37.9989" fill="none" version="1.1" viewBox="0 0 193.425 37.9989" xmlns="http://www.w3.org/2000/svg">
 <g id="g66">
  <path id="path66" d="m180.546 27.9326c-0.758 0.9688-1.942 1.6305-3.599 1.6305-2.273 0-4.072-1.4651-4.214-3.7099h10.725c0.023-0.4253 0.023-0.6852 0.023-0.9688 0-4.3951-3.006-6.7581-6.581-6.7581-4.191 0-7.198 3.1428-7.127 7.2307 0.071 4.1588 3.694 7.2307 7.837 6.9235 2.296-0.1654 4.072-1.1815 5.208-2.6938zm-3.717-7.2779c1.752 0 3.338 1.0633 3.669 3.0246h-7.599c0.402-2.0322 2.178-3.0246 3.93-3.0246z" style="fill:#260046"/>
  <path id="path65" d="m55.3286 29.2323c-0.5919 0.2363-1.0891 0.3308-1.9414 0.3308-1.2784 0-2.1307-0.638-2.1307-2.3157v-6.191h4.0721v-2.6702h-4.0721v-5.1512h-3.0067v5.1512h-2.6753v2.6702h2.6753v6.7108c0 3.0719 2.107 4.5133 4.7586 4.5133 0.876 0 1.681-0.1654 2.3202-0.3545z" style="fill:#260046"/>
  <path id="path64" d="m40.8631 23.9156-1.3968-0.4017c-1.3495-0.3781-1.6336-0.9452-1.6336-1.6068 0-0.8271 0.9234-1.276 1.823-1.276 1.1127 0 1.9887 0.5434 2.6043 1.3941l1.894-1.8431c-0.9707-1.3233-2.5096-2.0558-4.4273-2.0558-2.7226 0-4.8533 1.465-4.877 3.8989-0.0237 2.0085 1.2074 3.5208 3.5749 4.1588l1.2074 0.3308c1.6336 0.4963 2.1071 0.9452 2.1071 1.7486 0 0.9452-0.8996 1.4415-1.965 1.4415-1.3968 0-2.7226-0.6853-3.2672-1.8904l-2.0123 1.9612c1.0417 1.6778 3.0067 2.5284 5.2795 2.5284 2.8173 0 4.9481-1.6068 4.9481-4.2297-0.0474-2.2448-1.4679-3.4499-3.8591-4.1588z" style="fill:#260046"/>
  <path id="path63" d="m185.588 31.9969h3.007v-8.7429c0.592-1.4178 2.012-2.1031 3.22-2.1031 0.473 0 0.9 0.0473 1.184 0.1654l0.426-2.9064c-0.332-0.0709-0.829-0.1654-1.397-0.1654-1.539 0-2.912 0.9215-3.433 1.9612v-1.8195h-3.007z" style="fill:#260046"/>
  <path id="path62" d="m154.621 18.3862h3.007v1.2524c0.947-0.9924 2.368-1.5359 3.978-1.5359 4.072 0 6.818 3.2372 6.818 7.0889 0 3.8516-2.746 7.0889-6.818 7.0889-1.61 0-3.031-0.5435-3.978-1.5596v7.278h-3.007zm6.653 11.1769c2.415 0 4.072-1.9849 4.072-4.3951-0.023-2.7411-2.557-4.8205-5.232-4.2061-1.136 0.2599-1.965 0.9452-2.486 1.7486v4.9386c0.687 1.0869 1.87 1.914 3.646 1.914z" style="fill:#260046"/>
  <path id="path61" d="m152.088 18.3862h-3.007v9.0266c-0.568 1.276-1.728 2.1503-3.101 2.1503-1.894 0-2.959-1.3705-2.959-3.5208v-7.6561h-3.007v8.1523c0 3.5208 2.083 5.742 5.303 5.742 1.373 0 2.865-0.5435 3.764-1.6777v1.4178h3.007z" style="fill:#260046"/>
  <path id="path60" d="m124.72 28.8542c1.184 2.0794 3.788 3.4972 6.937 3.4972 3.788 0 6.439-2.1976 6.463-5.5766 0-2.8828-1.728-4.6078-4.569-5.6712l-1.965-0.7325c-2.013-0.7325-2.96-1.3705-2.96-2.7883 0-1.3941 1.421-2.2448 3.054-2.2448 1.492 0 2.699 0.6616 3.67 1.7959l2.202-2.1503c-1.421-1.6777-3.457-2.6466-5.872-2.6466-3.598 0-6.274 2.0794-6.274 5.4585 0 2.6465 1.492 4.3242 4.57 5.4585l2.13 0.7561c1.847 0.6853 2.747 1.5832 2.747 2.9537 0 1.4414-1.302 2.3866-3.149 2.3866-1.894 0-3.504-0.9215-4.498-2.4811z" style="fill:#260046"/>
  <path id="path59" d="m109.52 31.9969h3.007v-9.0265c0.568-1.2524 1.752-2.1503 3.362-2.1503 1.918 0 3.007 1.3705 3.007 3.5208v7.656h3.007v-8.1522c0-3.5208-2.084-5.742-5.351-5.742-1.61 0-3.078 0.5671-4.001 1.7249v-1.4414h-3.007v13.6107z" style="fill:#260046"/>
  <path id="path58" d="m100.003 32.2805c-4.04832 0-6.79462-3.2373-6.79462-7.0889 0-3.8517 2.7463-7.0889 6.79462-7.0889 1.61 0 3.031 0.5435 3.978 1.5359v-1.2524h3.006v13.6344h-3.006v-1.276c-0.947 0.9924-2.368 1.5359-3.978 1.5359zm0.355-2.7174c1.752 0 2.912-0.8271 3.623-1.914v-4.9386c-0.711-1.0634-1.894-1.8904-3.623-1.8904-2.39092 0-4.07192 1.9613-4.07192 4.3479 0.0237 2.4338 1.681 4.3951 4.07192 4.3951z" style="fill:#260046"/>
  <g id="g67">
   <path id="path57" d="m88.0002 18.3862h3.0067v13.6344h-3.0067z" style="fill:#260046"/>
   <path id="path56" d="m89.5154 16.3305c-1.0891 0-1.9887-0.898-1.9887-2.0086 0-1.0869 0.8996-1.9849 1.9887-1.9849 1.1127 0 2.0123 0.898 2.0123 1.9849 0 1.1106-0.8996 2.0086-2.0123 2.0086z" style="fill:#260046"/>
  </g>
  <path id="path55" d="m82.2945 31.9969h3.0067v-21.7157l-3.0067 2.9301z" style="fill:#260046"/>
  <path id="path54" d="m72.5877 32.2805c-4.0484 0-6.7947-3.2373-6.7947-7.0889 0-3.8517 2.7463-7.0889 6.7947-7.0889 1.6099 0 3.0304 0.5435 3.9774 1.5359v-1.2524h3.0067v13.6344h-3.0067v-1.276c-0.947 0.9924-2.3675 1.5359-3.9774 1.5359zm0.3551-2.7174c1.752 0 2.9121-0.8271 3.6223-1.914v-4.9386c-0.7102-1.0634-1.894-1.8904-3.6223-1.8904-2.3911 0-4.0721 1.9613-4.0721 4.3479 0 2.4338 1.6573 4.3951 4.0721 4.3951z" style="fill:#260046"/>
  <path id="path53" d="m57.8145 31.9969h3.0067v-8.7429c0.5919-1.4178 2.0124-2.1031 3.2198-2.1031 0.4735 0 0.8997 0.0473 1.1838 0.1654l0.4261-2.9064c-0.3314-0.0709-0.8286-0.1654-1.3968-0.1654-1.5389 0-2.912 0.9215-3.4329 1.9612v-1.8195h-3.0067z" style="fill:#260046"/>
  <path id="path52" d="m32.6242 18.3862h-3.0067v9.0266c-0.5682 1.276-1.7283 2.1503-3.1014 2.1503-1.894 0-2.9594-1.3705-2.9594-3.5208v-7.6561h-3.0067v8.1523c0 3.5208 2.0834 5.742 5.3032 5.742 1.3731 0 2.8646-0.5435 3.7643-1.6777v1.4178h3.0067z" style="fill:#260046"/>
  <path id="path4" d="m9.82514 16.9448 3.10144 7.1598h-6.22654zm-1.37315-4.277-8.45199 19.3528h3.31451l2.1781-5.0568h8.68877l2.2018 5.0568h3.3381l-8.452-19.3528z" style="fill:#260046"/>
 </g>
 <g id="g68">
  <path id="path5" d="m110.018 2.12798c-0.615 0.04726-0.662 0.92156-0.071 1.06334l13.4 3.09549c1.042-2.50475 1.066-4.72594-0.71-5.24579z" fill="url(#paint0_linear_93_3237)" style="fill:url(#paint0_linear_93_3237)"/>
  <path id="path6" d="m134.43 0.0025754c0.497-0.0472594 0.781 0.567113 0.426 0.921559l-14.418 14.0361c-0.426 0.4253-1.113-0.0709-0.876-0.6144l3.764-8.05773c1.042-2.50474 1.065-4.7023-0.71-5.24579z" fill="url(#paint1_linear_93_3237)" style="fill:url(#paint1_linear_93_3237)"/>
 </g>
 <defs id="defs19">
  <linearGradient id="paint0_linear_93_3237" x1="114.434" x2="120.882" y1="6.9189" y2="-.779952" gradientTransform="translate(-.136719)" gradientUnits="userSpaceOnUse">
   <stop id="stop6" stop-color="#EA4403" offset=".1155"/>
   <stop id="stop7" stop-color="#EA4A03" offset=".2632"/>
   <stop id="stop8" stop-color="#EC5A03" offset=".4566"/>
   <stop id="stop9" stop-color="#EE7203" offset=".65"/>
   <stop id="stop10" stop-color="#F18402" offset=".7747"/>
   <stop id="stop11" stop-color="#F8AE00" offset="1"/>
  </linearGradient>
  <linearGradient id="paint1_linear_93_3237" x1="120.338" x2="134.5" y1="6.93574" y2="8.17714" gradientTransform="translate(-.136719)" gradientUnits="userSpaceOnUse">
   <stop id="stop12" stop-color="#EA4403" offset=".1155"/>
   <stop id="stop13" stop-color="#EA4A03" offset=".2356"/>
   <stop id="stop14" stop-color="#EC5A03" offset=".3928"/>
   <stop id="stop15" stop-color="#EE7203" offset=".55"/>
   <stop id="stop16" stop-color="#F18402" offset=".6535"/>
   <stop id="stop17" stop-color="#F9B301" offset=".8604"/>
   <stop id="stop18" stop-color="#FFD500" offset=".9959"/>
   <stop id="stop19" stop-color="#FFD500" offset="1"/>
  </linearGradient>
 </defs>
</svg>
